<svg width="512" height="512" viewBox="0 0 512 512" fill="none" xmlns="http://www.w3.org/2000/svg">
<path d="M79.9149 224.566C80.3178 223.987 80.4619 223.234 80.2516 222.561C64.9279 173.482 110.615 163.602 110.615 160.893C116.972 136.361 135.115 90.9629 217.563 106.235C217.791 106.277 218.039 106.281 218.268 106.243C234.218 103.647 240.886 103.572 246.151 103.571C246.703 103.571 247.216 103.357 247.616 102.977C251.863 98.9366 278.21 76.538 312.917 105.892C313.222 106.151 313.61 106.324 314.007 106.375C320.977 107.27 325.421 109.647 331.966 110.764C332.31 110.822 332.677 110.779 333.004 110.656C412.503 80.5752 449.7 138.457 448.066 174.891C448.026 175.772 448.579 176.59 449.398 176.92C506.599 199.988 476.944 253.699 460.709 253.699C492.536 301.012 450.672 348.325 402.511 353.784C389.781 396.548 355.226 384.719 341.586 382.9C318.006 394.696 296.236 393.823 272.666 393.818C272.54 393.818 272.415 393.83 272.292 393.853C253.329 397.423 231.312 394.834 211.833 389.348C211.646 389.296 211.47 389.207 211.29 389.133C200.717 384.8 150.59 494.882 118.122 458.681C117.976 458.517 117.785 458.359 117.597 458.247C88.1438 440.684 127.884 372.879 125.165 369.252C92.4285 360.711 95.1565 322.849 97.8845 314.66C68.0852 266.427 73.7656 233.408 79.9149 224.566Z" fill="#F66181"/>
<path d="M460.709 253.699C492.536 301.012 450.672 348.325 402.511 353.784M460.709 253.699C476.944 253.699 506.599 199.988 449.398 176.92C448.579 176.59 448.026 175.772 448.066 174.891C449.7 138.457 412.503 80.5752 333.004 110.656C332.677 110.779 332.31 110.822 331.966 110.764C325.421 109.647 320.977 107.27 314.007 106.375C313.61 106.324 313.222 106.151 312.917 105.892C278.21 76.538 251.863 98.9366 247.616 102.977C247.216 103.357 246.703 103.571 246.151 103.571C240.886 103.572 234.218 103.647 218.268 106.243C218.039 106.281 217.791 106.277 217.563 106.235C135.115 90.9629 116.972 136.361 110.615 160.893M460.709 253.699L402.511 219.124M110.615 160.893C110.615 163.602 64.9279 173.482 80.2516 222.561C80.4619 223.234 80.3178 223.987 79.9149 224.566C73.7656 233.408 68.0852 266.427 97.8845 314.66M110.615 160.893L159.719 180M97.8845 314.66C95.1565 322.849 92.4285 360.711 125.165 369.252M97.8845 314.66C97.8845 314.66 105.159 280.085 151.535 280.085M125.165 369.252C127.884 372.879 88.1438 440.684 117.597 458.247C117.785 458.359 117.976 458.517 118.122 458.681C150.59 494.882 200.717 384.8 211.29 389.133C211.47 389.207 211.646 389.296 211.833 389.348C231.312 394.834 253.329 397.423 272.292 393.853C272.415 393.83 272.54 393.818 272.666 393.818C296.236 393.823 318.006 394.696 341.586 382.9M125.165 369.252C125.165 369.252 184.272 352.874 201.549 325.578M341.586 382.9C355.226 384.719 389.781 396.548 402.511 353.784M341.586 382.9L326.61 342.353C326.32 341.568 325.571 341.046 324.734 341.046H282.479M402.511 353.784L376.141 299.192M201.549 325.578C193.736 306.391 189.356 299.272 181.544 280.085M201.549 325.578C224.282 318.299 233.376 328.308 233.376 328.308M402.511 219.124L412.514 193.648M402.511 219.124L376.141 223.673M376.141 223.673L383.243 239.663C383.357 239.919 383.415 240.195 383.415 240.475V257.338M376.141 223.673L362.893 205.999C362.638 205.659 362.282 205.409 361.875 205.286L341.586 199.107M337.039 257.338H306.851C299.532 257.338 292.651 260.821 288.317 266.719L272.477 288.274M201.549 242.781L250.653 219.124M159.719 180L193.601 161.265C194.034 161.025 194.541 160.955 195.022 161.067L233.376 169.991M159.719 180L162.353 198.45C162.414 198.877 162.336 199.311 162.13 199.69L151.535 219.124" stroke="black" stroke-width="19"/>
<path d="M239.002 127H320L271.314 196.052H311.485L274.589 265.104H309.084L227.212 386L241.622 293.858H215.423L241.622 229.38H208L239.002 127Z" fill="url(#paint0_linear)"/>
<defs>
<linearGradient id="paint0_linear" x1="264" y1="127" x2="264" y2="386" gradientUnits="userSpaceOnUse">
<stop stop-color="#FFF85C"/>
<stop offset="1" stop-color="#FFF85C" stop-opacity="0.35"/>
</linearGradient>
</defs>
</svg>
